<?xml version="1.0" encoding="UTF-8" standalone="no"?><!DOCTYPE svg PUBLIC "-//W3C//DTD SVG 1.1//EN" "http://www.w3.org/Graphics/SVG/1.1/DTD/svg11.dtd"><svg width="100%" height="100%" viewBox="0 0 1060 442" version="1.1" xmlns="http://www.w3.org/2000/svg" xmlns:xlink="http://www.w3.org/1999/xlink" xml:space="preserve" xmlns:serif="http://www.serif.com/" style="fill-rule:evenodd;clip-rule:evenodd;stroke-linejoin:round;stroke-miterlimit:2;"><rect id="Artboard1" x="0" y="0" width="1059.955" height="441.405" style="fill:none;"/><path d="M658.68,316.285c-14.296,0 -26.175,-4.392 -35.633,-13.183c-9.462,-8.783 -15.075,-21.208 -16.842,-37.271l0,-0.129l30.15,0l0,0.129c0.837,6.725 3.233,11.962 7.188,15.704c3.95,3.742 9.083,5.613 15.392,5.613c7.146,0 8.508,-2.375 12.421,-7.129c3.908,-4.75 5.863,-11.412 5.863,-19.992l0,-15.387c0,-8.579 -1.871,-15.221 -5.613,-19.933c-3.742,-4.704 -9.021,-7.062 -15.829,-7.062c-4.712,0 -8.979,1.262 -12.804,3.783c-3.825,2.525 -6.833,6.058 -9.021,10.596l-27.875,0l0,-101.037l95.992,0l0,28.887l-65.846,0l0,36.833c2.942,-2.608 6.517,-4.625 10.725,-6.054c4.2,-1.429 8.45,-2.146 12.738,-2.146c15.137,0 26.867,4.9 35.196,14.696c8.325,9.796 12.488,23.608 12.488,41.437l0,15.387c0,17.913 -4.604,31.767 -13.812,41.562c-9.208,9.8 -18.058,14.696 -34.875,14.696" style="fill:#fff;fill-rule:nonzero;"/><path d="M771.081,316.285c-10.679,0 -20.121,-1.933 -28.317,-5.804c-8.2,-3.867 -14.758,-9.479 -19.679,-16.837c-4.921,-7.358 -7.883,-16.292 -8.892,-26.804l30.904,0c1.008,6.812 3.613,11.9 7.821,15.263c4.2,3.367 9.625,5.046 16.271,5.046c7.567,0 13.413,-2.037 17.533,-6.117c4.121,-4.079 6.179,-9.863 6.179,-17.346l0,-4.921c0,-8.071 -1.829,-14.317 -5.487,-18.729c-3.658,-4.417 -8.892,-6.625 -15.704,-6.625l-14.254,0l0,-28.758l14.254,0c5.804,0 10.283,-1.913 13.433,-5.738c3.154,-3.825 4.733,-9.188 4.733,-16.083l0,-4.417c0,-6.475 -1.704,-11.454 -5.108,-14.946c-3.408,-3.492 -8.221,-5.237 -14.446,-5.237c-5.633,0 -10.404,1.792 -14.317,5.362c-3.908,3.575 -6.579,8.979 -8.008,16.208l-30.779,0c2.104,-16.146 7.987,-28.633 17.663,-37.462c9.667,-8.829 21.696,-13.246 36.075,-13.246c15.975,0 28.358,4.162 37.146,12.487c8.788,8.325 13.183,20.058 13.183,35.196l0,4.288c0,8.829 -2.312,16.504 -6.938,23.021c-4.629,6.517 -11.188,11.375 -19.679,14.567c9.417,2.104 16.712,6.875 21.887,14.317c5.171,7.446 7.754,16.925 7.754,28.446l0,4.288c0,16.062 -4.646,28.508 -13.938,37.337c-9.292,8.829 -22.387,13.246 -39.292,13.246" style="fill:#fff;fill-rule:nonzero;"/><path d="M536.723,316.285l-370.509,0l0,-184.876l368.353,0c17.968,0 31.891,4.37 41.762,13.101c9.879,8.732 14.818,21.06 14.818,37.001c0,10.766 -3.157,19.644 -9.472,26.634c-6.323,6.99 -15.242,11.466 -26.764,13.411c12.288,1.701 21.8,6.388 28.538,14.053c6.746,7.674 10.115,17.65 10.115,29.946l0,0.382c0,16.015 -4.964,28.416 -14.875,37.188c-9.92,8.772 -23.908,13.158 -41.965,13.158Zm20.972,-62.628c-0.984,-3.904 -2.91,-7.125 -5.779,-9.658c-4.362,-3.849 -10.53,-5.786 -18.497,-5.786l-332.369,0l0,0.133l-5.275,0l0,53.741l338.17,0c6.915,-0 13.547,-2.747 18.437,-7.637c4.89,-4.89 7.637,-11.522 7.637,-18.437l-0,-1.592c0,-3.748 -0.807,-7.414 -2.325,-10.763Zm-23.749,-93.733l-338.17,0l0,53.741l338.17,0c6.915,-0 13.547,-2.747 18.437,-7.637c4.89,-4.89 7.637,-11.522 7.637,-18.437l-0,-1.592c0,-6.915 -2.747,-13.547 -7.637,-18.437c-4.89,-4.89 -11.522,-7.637 -18.437,-7.637Z" style="fill:#fff;"/></svg>